PathFileType	4	(X/Y/Z)	/Users/niels/Desktop/University/Third Semester/Perception and Action/Exam/Gymnastics Motion Tracking/Code for Gym Tracking/Analyzed Data/Webcam_Backflip/id8_5_pure_Sports2D/id8_5_pure_Sports2D_px_person00.trc
DataRate	CameraRate	NumFrames	NumMarkers	Units	OrigDataRate	OrigDataStartFrame	OrigNumFrames
29.8125	29.8125	10	22	m	29.8125	80	160
Frame#	Time	Hip			RHip			RKnee			RAnkle			RBigToe			RSmallToe			RHeel			LHip			LKnee			LAnkle			LBigToe			LSmallToe			LHeel			Neck			Head			Nose			RShoulder			RElbow			RWrist			LShoulder			LElbow			LWrist		
		X1	Y1	Z1	X2	Y2	Z2	X3	Y3	Z3	X4	Y4	Z4	X5	Y5	Z5	X6	Y6	Z6	X7	Y7	Z7	X8	Y8	Z8	X9	Y9	Z9	X10	Y10	Z10	X11	Y11	Z11	X12	Y12	Z12	X13	Y13	Z13	X14	Y14	Z14	X15	Y15	Z15	X16	Y16	Z16	X17	Y17	Z17	X18	Y18	Z18	X19	Y19	Z19	X20	Y20	Z20	X21	Y21	Z21	X22	Y22	Z22
80	2.683438155136268	0.99287256564503	-0.5487052342952049	0.0	0.9949129815357883	-0.5464476258488847	0.0	0.9954736039877593	-0.6508116493805302	0.0	0.9858868474529624	-0.7501199667446136	0.0	1.0150492188739744	-0.7721556342534428	0.0	1.0042206412644534	-0.7761046715922363	0.0	0.9771375700472207	-0.7647849996989388	0.0	0.9917086662973102	-0.5448397243268556	0.0	0.9934212457009115	-0.6501890884558269	0.0	0.9847242753048416	-0.7434726729502137	0.0	1.016145125469082	-0.763767357151862	0.0	1.0122151387974654	-0.7612065379965725	0.0	0.9735145015589874	-0.7531392827024578	0.0	0.986322925935909	-0.42247446360478597	0.0	0.9920685036052768	-0.3613954291520322	0.0	1.0062037345542132	-0.38974723050270843	0.0	0.9838238842541347	-0.43171591970550294	0.0	1.0131917338530911	-0.39747756861242145	0.0	1.0327480095965589	-0.36621004711707633	0.0	0.9782144813172373	-0.4282364583341993	0.0	0.9952437235669922	-0.39589166593434416	0.0	1.016604668175166	-0.3672499343389239	0.0
81	2.716981132075471	0.9928020808513144	-0.5440272276488826	0.0	0.9946480298138782	-0.5411383267614236	0.0	0.996102881496101	-0.6462331956274108	0.0	0.9881492666233056	-0.7465140924939014	0.0	1.0170048928664635	-0.7701758105556012	0.0	1.0063850812305162	-0.7736867827606637	0.0	0.9798314133130579	-0.7615471104820795	0.0	0.9918178721498289	-0.5394915738075259	0.0	0.9935426222186541	-0.6458027804258989	0.0	0.9857994224123116	-0.7396878964672879	0.0	1.0168888797266864	-0.7613032499800133	0.0	1.0126940412580483	-0.7589103869743321	0.0	0.9744052666463152	-0.7498152507328234	0.0	0.9882133118563784	-0.4160424493969394	0.0	0.9973179997978904	-0.3545109965476953	0.0	1.0111035449913575	-0.38469806105891585	0.0	0.984615863110395	-0.4271470548165718	0.0	1.0154237461826692	-0.40663903662072887	0.0	1.0369786580699696	-0.38558955999624095	0.0	0.978807569956843	-0.42385355811391084	0.0	0.9926559412580254	-0.40454211178334354	0.0	1.0227771477051875	-0.38577676173720327	0.0
82	2.7505241090146746	0.992779132286104	-0.542217038982714	0.0	0.994590856907321	-0.539112654806863	0.0	0.9967985422615326	-0.6442205604639286	0.0	0.9898607012260847	-0.7452508832888239	0.0	1.0180467593269273	-0.7701085173549372	0.0	1.007836707794191	-0.7732437480606849	0.0	0.9820522751531497	-0.7605236990295258	0.0	0.9915542577251409	-0.5373655842300138	0.0	0.9935140129053106	-0.6438821588132503	0.0	0.9862652749777446	-0.7381991879310918	0.0	1.0169071942591112	-0.7609735360194484	0.0	1.0122978747021842	-0.7587055430418536	0.0	0.9750923069578028	-0.7489111830963298	0.0	0.9901999235996821	-0.4130014194134511	0.0	1.0025370424425397	-0.3506325086789216	0.0	1.0155599368931636	-0.3829528149171044	0.0	0.9851428131055613	-0.42573069991592977	0.0	1.016125528729198	-0.42028061365678804	0.0	1.0396735676466007	-0.41044070787011233	0.0	0.9795731815656546	-0.4226245239726401	0.0	0.9898314950393369	-0.41861254798111347	0.0	1.0278971870124032	-0.410422491538448	0.0
83	2.784067085953878	0.9927264515431663	-0.5432985269815103	0.0	0.9946904722612234	-0.5403865730694062	0.0	0.9973206182145146	-0.6448641753578622	0.0	0.9907135270730836	-0.7463354157383163	0.0	1.0183302188819245	-0.7718344063121102	0.0	1.0085534479911582	-0.7747147716497038	0.0	0.9833762542892155	-0.7617178673778208	0.0	0.9909811523594607	-0.5385301868235126	0.0	0.9933241240971025	-0.6444780483012654	0.0	0.986073086761893	-0.7390424925460426	0.0	1.016430679179343	-0.7626746255556357	0.0	1.0113976905123117	-0.7604202597673844	0.0	0.975334151558636	-0.7504645189442375	0.0	0.991937514433374	-0.4134873307959392	0.0	1.0065096862585434	-0.35027108491836356	0.0	1.018664849185907	-0.3844998155210316	0.0	0.9853857514383325	-0.4276322798632991	0.0	1.0148965290216052	-0.43734917181857774	0.0	1.04081059966507	-0.4393263917485668	0.0	0.9805682758328285	-0.4247012241181368	0.0	0.9881268524897865	-0.43677523372449223	0.0	1.0312597966479626	-0.43965768438419195	0.0
84	2.817610062893081	0.9926054146074116	-0.5471930049254098	0.0	0.9948334516080982	-0.5446980322698038	0.0	0.9974255291818951	-0.6481426869380061	0.0	0.9905206087169541	-0.7496370737536399	0.0	1.0180381296501106	-0.7751396826724056	0.0	1.0085674499616404	-0.7778985493934181	0.0	0.9835481417034185	-0.7650525043758106	0.0	0.9902711591921878	-0.5428189815480733	0.0	0.9930238655401142	-0.64758474102222	0.0	0.9852898172142206	-0.7421737963888009	0.0	1.015709734156006	-0.766217332856345	0.0	1.0103870542068427	-0.7638776866838071	0.0	0.9749843059636965	-0.7543926405644222	0.0	0.9931629074851624	-0.4171842589921793	0.0	1.0087045312265672	-0.3533712616064809	0.0	1.0201957210662762	-0.3889673407491273	0.0	0.9853245007113968	-0.43265073355149997	0.0	1.011789482074406	-0.4563442258569812	0.0	1.0403985244163756	-0.47042750797057403	0.0	0.9818010800103094	-0.429917147330855	0.0	0.9880457198459697	-0.4568115872277844	0.0	1.032566374584637	-0.47118250257821426	0.0
85	2.8511530398322846	0.9924013581598092	-0.5537240624997741	0.0	0.9948654322819953	-0.5516094421533598	0.0	0.9969442052776237	-0.6538886777409743	0.0	0.9892654024537486	-0.7548813880694886	0.0	1.0172992077168712	-0.7797399686795422	0.0	1.0079418312299933	-0.7824966792869911	0.0	0.9825377384304954	-0.7703133062946916	0.0	0.9896735926003105	-0.5498866217764155	0.0	0.9926941529235693	-0.6531143189080383	0.0	0.9840853598147765	-0.7474674046048517	0.0	1.014939158600418	-0.771377254002113	0.0	1.0095563099674596	-0.7689330074964805	0.0	0.9740581733134643	-0.760466100391233	0.0	0.9937807330471352	-0.4234961400584095	0.0	1.0091811757206313	-0.3594285756771805	0.0	1.0205023171878158	-0.39573930300951665	0.0	0.9849669593077552	-0.4402982073946205	0.0	1.0073797532891595	-0.47599786114737364	0.0	1.0384422967098559	-0.5018136590436164	0.0	0.9832614887324675	-0.4378255254649924	0.0	0.9891135639121131	-0.4768016563435654	0.0	1.031854348930664	-0.5025314502513332	0.0
86	2.884696016771488	0.9920998642606504	-0.5625179064231197	0.0	0.9946237566112347	-0.5605912858909222	0.0	0.9958352850174402	-0.6616897759401817	0.0	0.9871258195581796	-0.7616489937080795	0.0	1.01621301899102	-0.7852961882181294	0.0	1.0067599953760793	-0.788148799817034	0.0	0.9805403150533343	-0.7771178520972116	0.0	0.989420112152929	-0.5592137548037612	0.0	0.9923835510937475	-0.6607601829159649	0.0	0.9826798705289005	-0.7546181820466268	0.0	1.0142472107565494	-0.7778436282435143	0.0	1.009022924941614	-0.775356372101988	0.0	0.9727534394899332	-0.7682647732564153	0.0	0.9938727699782391	-0.4316921304792647	0.0	1.0082886997406577	-0.3676854388684208	0.0	1.0201438967007077	-0.4040778706774237	0.0	0.9843840186374437	-0.44990081122289394	0.0	1.0026511269330576	-0.49551248847364254	0.0	1.0349447597573551	-0.5316741277800681	0.0	0.9849806358526114	-0.44773479602460664	0.0	0.9906908976690472	-0.49576249697867597	0.0	1.0293107494419036	-0.5316935218470417	0.0
87	2.918238993710691	0.9916946492954556	-0.5729368277928671	0.0	0.9940228373235216	-0.5710414833785956	0.0	0.9941960119399226	-0.670870251145092	0.0	0.984438999464234	-0.7693989197861697	0.0	1.0148658147705243	-0.7913917543304111	0.0	1.0051289853681604	-0.7944102989685259	0.0	0.9779469460809933	-0.7849231809356221	0.0	0.9895676317045015	-0.5700991060442361	0.0	0.9920409161836895	-0.6699161697979787	0.0	0.9812526127084802	-0.7630588644179723	0.0	1.0136847556176924	-0.7851153205457306	0.0	1.0087047308971653	-0.7826804192295772	0.0	0.9713337017234529	-0.777158713619011	0.0	0.9936135263176962	-0.44097667838662225	0.0	1.006512164260464	-0.3772734507553068	0.0	1.019570968963451	-0.4132223364296747	0.0	0.9837268867535592	-0.46061701181066794	0.0	0.9984065830852974	-0.5141392523216469	0.0	1.0299343902484943	-0.5584737622865125	0.0	0.9868856964846775	-0.45871484323900874	0.0	0.992276096044566	-0.5132306689903211	0.0	1.025160269625403	-0.5572776572456974	0.0
88	2.9517819706498947	0.9912177409554178	-0.5840925576044323	0.0	0.9931379672220352	-0.58220842794626	0.0	0.9922408247792145	-0.6805877442871525	0.0	0.9816130417373327	-0.7774693584463139	0.0	1.0133159921961719	-0.7975051988513009	0.0	1.003181291205898	-0.8007163043598862	0.0	0.9752488375880708	-0.7930205748471426	0.0	0.9899543397334569	-0.581635420225074	0.0	0.9915304570064885	-0.6797366092392969	0.0	0.9798924745341162	-0.7719557142024585	0.0	1.0132259269375252	-0.7924716012853735	0.0	1.0084060460391233	-0.7901671761869309	0.0	0.9699766492317481	-0.7862907824176724	0.0	0.9931809490912692	-0.45052892055810084	0.0	1.0044227183667247	-0.38726031131248967	0.0	1.0190156543395748	-0.42241654359709613	0.0	0.9831820973009294	-0.4714598078872393	0.0	0.9947388254720165	-0.5308952567380426	0.0	1.023516851045409	-0.5810355300988338	0.0	0.9886788022537298	-0.4696983889849781	0.0	0.9932917635684595	-0.5286780260187687	0.0	1.0196216468459058	-0.5784032649142583	0.0
89	2.985324947589098	0.9907711839773713	-0.5948926758318138	0.0	0.9921810175783032	-0.5931162981393899	0.0	0.9902455464465642	-0.689902223930817	0.0	0.9790152467673656	-0.7850838408450815	0.0	1.0116658439807629	-0.8030552085690355	0.0	1.0011017870372547	-0.8064329497986756	0.0	0.9728450934076831	-0.8005677275115163	0.0	0.9903654529185438	-0.5927320183879328	0.0	0.9907735684255679	-0.6892181661707079	0.0	0.9786441929820915	-0.7803144777780673	0.0	1.0128298743320931	-0.7991234360651345	0.0	1.008004549359751	-0.7969715162196847	0.0	0.9687459180759219	-0.7946616360603277	0.0	0.9927242389061258	-0.45950422015274844	0.0	1.0025632047712874	-0.39666250317350676	0.0	1.0185765986839734	-0.43089965307828304	0.0	0.9828826854819331	-0.48140158399268435	0.0	0.9912388325093018	-0.5447571753070685	0.0	1.0158972256648797	-0.5985958032909484	0.0	0.9900199569817613	-0.4796627995976507	0.0	0.9931872958062122	-0.5414191386231367	0.0	1.0128966779365762	-0.5946686487312937	0.0
